<mxfile host="Electron" modified="2023-07-12T12:36:13.145Z" agent="Mozilla/5.0 (Windows NT 10.0; Win64; x64) AppleWebKit/537.36 (KHTML, like Gecko) draw.io/21.6.1 Chrome/112.0.5615.204 Electron/24.6.1 Safari/537.36" etag="eErVirfFGRtJH3BkUiTc" version="21.6.1" type="device">
  <diagram name="第 1 页" id="C5g51FwywQHbUDYnrKme">
    <mxGraphModel dx="593" dy="689" grid="1" gridSize="10" guides="1" tooltips="1" connect="1" arrows="1" fold="1" page="1" pageScale="1" pageWidth="827" pageHeight="1169" math="0" shadow="0">
      <root>
        <mxCell id="0" />
        <mxCell id="1" parent="0" />
        <mxCell id="B9QIBXAvS4fAvO9vAOyn-6" value="" style="edgeStyle=orthogonalEdgeStyle;rounded=0;orthogonalLoop=1;jettySize=auto;html=1;" edge="1" parent="1" source="B9QIBXAvS4fAvO9vAOyn-2" target="B9QIBXAvS4fAvO9vAOyn-5">
          <mxGeometry relative="1" as="geometry">
            <mxPoint x="430" y="130" as="sourcePoint" />
          </mxGeometry>
        </mxCell>
        <mxCell id="B9QIBXAvS4fAvO9vAOyn-2" value="开始" style="rounded=1;whiteSpace=wrap;html=1;" vertex="1" parent="1">
          <mxGeometry x="370" width="120" height="60" as="geometry" />
        </mxCell>
        <mxCell id="B9QIBXAvS4fAvO9vAOyn-8" value="" style="edgeStyle=orthogonalEdgeStyle;rounded=0;orthogonalLoop=1;jettySize=auto;html=1;" edge="1" parent="1" source="B9QIBXAvS4fAvO9vAOyn-5" target="B9QIBXAvS4fAvO9vAOyn-7">
          <mxGeometry relative="1" as="geometry" />
        </mxCell>
        <mxCell id="B9QIBXAvS4fAvO9vAOyn-10" value="" style="edgeStyle=orthogonalEdgeStyle;rounded=0;orthogonalLoop=1;jettySize=auto;html=1;" edge="1" parent="1" source="B9QIBXAvS4fAvO9vAOyn-5" target="B9QIBXAvS4fAvO9vAOyn-9">
          <mxGeometry relative="1" as="geometry" />
        </mxCell>
        <mxCell id="B9QIBXAvS4fAvO9vAOyn-5" value="需求分析" style="rounded=0;whiteSpace=wrap;html=1;" vertex="1" parent="1">
          <mxGeometry x="370" y="150" width="120" height="60" as="geometry" />
        </mxCell>
        <mxCell id="B9QIBXAvS4fAvO9vAOyn-16" value="" style="edgeStyle=orthogonalEdgeStyle;rounded=0;orthogonalLoop=1;jettySize=auto;html=1;" edge="1" parent="1" source="B9QIBXAvS4fAvO9vAOyn-7" target="B9QIBXAvS4fAvO9vAOyn-15">
          <mxGeometry relative="1" as="geometry" />
        </mxCell>
        <mxCell id="B9QIBXAvS4fAvO9vAOyn-7" value="概念设计（ER图）" style="whiteSpace=wrap;html=1;rounded=0;" vertex="1" parent="1">
          <mxGeometry x="370" y="290" width="120" height="60" as="geometry" />
        </mxCell>
        <mxCell id="B9QIBXAvS4fAvO9vAOyn-12" value="" style="edgeStyle=orthogonalEdgeStyle;rounded=0;orthogonalLoop=1;jettySize=auto;html=1;" edge="1" parent="1" source="B9QIBXAvS4fAvO9vAOyn-9" target="B9QIBXAvS4fAvO9vAOyn-11">
          <mxGeometry relative="1" as="geometry" />
        </mxCell>
        <mxCell id="B9QIBXAvS4fAvO9vAOyn-9" value="功能分析" style="whiteSpace=wrap;html=1;rounded=0;" vertex="1" parent="1">
          <mxGeometry x="170" y="150" width="120" height="60" as="geometry" />
        </mxCell>
        <mxCell id="B9QIBXAvS4fAvO9vAOyn-14" value="" style="edgeStyle=orthogonalEdgeStyle;rounded=0;orthogonalLoop=1;jettySize=auto;html=1;" edge="1" parent="1" source="B9QIBXAvS4fAvO9vAOyn-11" target="B9QIBXAvS4fAvO9vAOyn-13">
          <mxGeometry relative="1" as="geometry" />
        </mxCell>
        <mxCell id="B9QIBXAvS4fAvO9vAOyn-11" value="应用编程设计" style="whiteSpace=wrap;html=1;rounded=0;" vertex="1" parent="1">
          <mxGeometry x="170" y="290" width="120" height="60" as="geometry" />
        </mxCell>
        <mxCell id="B9QIBXAvS4fAvO9vAOyn-21" value="" style="edgeStyle=orthogonalEdgeStyle;rounded=0;orthogonalLoop=1;jettySize=auto;html=1;" edge="1" parent="1" source="B9QIBXAvS4fAvO9vAOyn-13" target="B9QIBXAvS4fAvO9vAOyn-20">
          <mxGeometry relative="1" as="geometry" />
        </mxCell>
        <mxCell id="B9QIBXAvS4fAvO9vAOyn-13" value="业务编程实现" style="whiteSpace=wrap;html=1;rounded=0;" vertex="1" parent="1">
          <mxGeometry x="170" y="570" width="120" height="60" as="geometry" />
        </mxCell>
        <mxCell id="B9QIBXAvS4fAvO9vAOyn-18" value="" style="edgeStyle=orthogonalEdgeStyle;rounded=0;orthogonalLoop=1;jettySize=auto;html=1;" edge="1" parent="1" source="B9QIBXAvS4fAvO9vAOyn-15" target="B9QIBXAvS4fAvO9vAOyn-17">
          <mxGeometry relative="1" as="geometry" />
        </mxCell>
        <mxCell id="B9QIBXAvS4fAvO9vAOyn-15" value="逻辑结构设计" style="whiteSpace=wrap;html=1;rounded=0;" vertex="1" parent="1">
          <mxGeometry x="370" y="430" width="120" height="60" as="geometry" />
        </mxCell>
        <mxCell id="B9QIBXAvS4fAvO9vAOyn-19" value="" style="edgeStyle=orthogonalEdgeStyle;rounded=0;orthogonalLoop=1;jettySize=auto;html=1;" edge="1" parent="1" source="B9QIBXAvS4fAvO9vAOyn-17" target="B9QIBXAvS4fAvO9vAOyn-13">
          <mxGeometry relative="1" as="geometry" />
        </mxCell>
        <mxCell id="B9QIBXAvS4fAvO9vAOyn-17" value="物理结构设计" style="whiteSpace=wrap;html=1;rounded=0;" vertex="1" parent="1">
          <mxGeometry x="370" y="570" width="120" height="60" as="geometry" />
        </mxCell>
        <mxCell id="B9QIBXAvS4fAvO9vAOyn-20" value="结束" style="rounded=1;whiteSpace=wrap;html=1;" vertex="1" parent="1">
          <mxGeometry x="170" y="720" width="120" height="60" as="geometry" />
        </mxCell>
        <mxCell id="B9QIBXAvS4fAvO9vAOyn-22" value="" style="endArrow=classic;html=1;rounded=0;exitX=1;exitY=1;exitDx=0;exitDy=0;entryX=0;entryY=0;entryDx=0;entryDy=0;" edge="1" parent="1" source="B9QIBXAvS4fAvO9vAOyn-9" target="B9QIBXAvS4fAvO9vAOyn-17">
          <mxGeometry width="50" height="50" relative="1" as="geometry">
            <mxPoint x="310" y="390" as="sourcePoint" />
            <mxPoint x="360" y="340" as="targetPoint" />
          </mxGeometry>
        </mxCell>
        <mxCell id="B9QIBXAvS4fAvO9vAOyn-23" value="" style="endArrow=classic;html=1;rounded=0;exitX=0;exitY=1;exitDx=0;exitDy=0;entryX=1;entryY=0;entryDx=0;entryDy=0;" edge="1" parent="1" source="B9QIBXAvS4fAvO9vAOyn-15" target="B9QIBXAvS4fAvO9vAOyn-13">
          <mxGeometry width="50" height="50" relative="1" as="geometry">
            <mxPoint x="300" y="220" as="sourcePoint" />
            <mxPoint x="380" y="580" as="targetPoint" />
          </mxGeometry>
        </mxCell>
      </root>
    </mxGraphModel>
  </diagram>
</mxfile>
